<?xml version="1.0" encoding="UTF-8"?>
<svg id="Layer_1" data-name="Layer 1" xmlns="http://www.w3.org/2000/svg" xmlns:xlink="http://www.w3.org/1999/xlink" viewBox="0 0 481.62 188.99">
  <defs>
    <style>
      .cls-1 {
        clip-path: url(#clippath);
      }

      .cls-2 {
        fill: none;
      }

      .cls-2, .cls-3, .cls-4 {
        stroke-width: 0px;
      }

      .cls-5 {
        opacity: .2;
      }

      .cls-6 {
        opacity: .3;
      }

      .cls-3 {
        fill: #fff;
      }

      .cls-4 {
        fill: #0064fa;
      }
    </style>
    <clipPath id="clippath">
      <path class="cls-2" d="m248.13,32.94c1.36,2.38,1.68,5.25.88,7.87-.36,1.18-.71,2.32-.94,3.1l4.5,1.36c.23-.77.58-1.91.94-3.09,1.17-3.85.7-8.06-1.29-11.56-3.02-5.3-8.21-8.9-14.23-9.87-5.39-.87-10.9.92-14.75,4.79l-5.64,5.67c-1.45,1.46-3.08,2.72-4.86,3.75-4.43,2.57-9.47,3.68-14.57,3.2l-9-.85-.44,4.68,9,.85c6.08.57,12.08-.74,17.37-3.81,2.13-1.24,4.1-2.75,5.83-4.5l5.64-5.67c2.79-2.8,6.78-4.09,10.67-3.46,4.61.75,8.59,3.5,10.9,7.56Z"/>
    </clipPath>
  </defs>
  <path class="cls-3" d="m173.22,145.71c0,19.45-18.57,27.98-41.03,27.98h-50.69l17.57-87.83h46.55c20.83,0,31.49,7.65,31.49,20.95,0,10.16-6.02,17.57-15.68,21.71,7.53,3.26,11.79,9.16,11.79,17.19Zm-29.36-.75c0-3.89-3.39-5.77-7.28-5.77h-19.07l-2.76,13.8h19.07c5.77,0,10.04-2.63,10.04-8.03Zm-19.82-38.39l-2.63,13.05h15.06c6.78,0,9.79-2.89,9.79-7.65,0-3.64-2.89-5.4-7.78-5.4h-14.43Z"/>
  <path class="cls-3" d="m394.04,85.86l-17.31,87.83h-26.98l7.78-40.03-24.72,32.12h-13.05l-13.55-31.62-7.9,39.52h-26.98l17.57-87.83h24.09l19.07,46.68,36.76-46.68h25.22Z"/>
  <path class="cls-3" d="m477.73,145.71c0,19.45-18.57,27.98-41.03,27.98h-50.69l17.57-87.83h46.55c20.83,0,31.49,7.65,31.49,20.95,0,10.16-6.02,17.57-15.68,21.71,7.53,3.26,11.79,9.16,11.79,17.19Zm-29.36-.75c0-3.89-3.39-5.77-7.28-5.77h-19.07l-2.76,13.8h19.07c5.77,0,10.04-2.63,10.04-8.03Zm-19.82-38.39l-2.63,13.05h15.06c6.78,0,9.79-2.89,9.79-7.65,0-3.64-2.89-5.4-7.78-5.4h-14.43Z"/>
  <g>
    <polygon class="cls-3" points="42.62 108.3 42.66 108.3 84.44 108.3 88.96 85.86 17.57 85.86 13.06 108.3 42.62 108.3"/>
    <polygon class="cls-3" points="10.08 123.27 0 173.69 29.61 173.69 35.26 145.59 76.98 145.59 81.49 123.27 10.08 123.27"/>
  </g>
  <g>
    <g class="cls-5">
      <path class="cls-3" d="m199.36,154.97c-20.4-21.86-19.21-56.12,2.66-76.51,1.46-1.36,2.97-2.62,4.53-3.79-6.09,2.42-11.85,5.99-16.93,10.74-21.86,20.4-23.05,54.65-2.66,76.51,19.04,20.41,50.15,22.8,71.98,6.45-20.11,7.99-43.93,3.39-59.58-13.39Z"/>
    </g>
    <g>
      <g>
        <g class="cls-6">
          <path class="cls-3" d="m232.77,65.07l4.32-13.96c1.01-3.27,3.87-5.66,7.27-6.03.81-.09,1.61-.15,2.38-.18-3.24-.73-6.89-1-10.97-.56-3.4.37-6.26,2.76-7.27,6.03l-4.32,13.96,36.66,11.07.48-1.71-28.56-8.62Z"/>
        </g>
        <g>
          <path class="cls-3" d="m186.46,43.84l.83-8.79,11.06,1.04c4.67.44,9.28-.57,13.34-2.93,1.62-.94,3.11-2.09,4.43-3.42l5.64-5.67c4.32-4.34,10.5-6.35,16.55-5.37,5.72.93,10.77,3.99,14.22,8.63.53.72,1.03,1.48,1.48,2.26,2.27,3.99,2.81,8.79,1.48,13.19-.63,2.08-1.23,4.05-1.23,4.07l-.3.99-8.45-2.55.3-.99s.6-2,1.24-4.09c.63-2.08.38-4.36-.7-6.24-.27-.47-.57-.93-.89-1.36-2.07-2.79-5.1-4.63-8.54-5.18-3.24-.52-6.56.55-8.88,2.88l-5.64,5.67c-1.87,1.88-3.97,3.5-6.26,4.83-5.66,3.28-12.09,4.69-18.6,4.08l-11.06-1.04Zm2.69-6.54l-.44,4.68,9,.85c6.08.57,12.08-.74,17.37-3.81,2.13-1.24,4.1-2.75,5.83-4.5l5.64-5.67c2.79-2.8,6.78-4.09,10.67-3.46,3.98.64,7.48,2.77,9.87,5.99.37.5.72,1.03,1.03,1.57,1.36,2.38,1.68,5.25.88,7.87-.36,1.18-.7,2.32-.94,3.1l4.5,1.36c.23-.77.58-1.91.94-3.09,1.17-3.85.7-8.06-1.29-11.56-.4-.71-.86-1.4-1.34-2.05-3.12-4.2-7.7-6.98-12.89-7.82-5.39-.87-10.9.92-14.75,4.79l-5.64,5.67c-1.45,1.46-3.08,2.72-4.86,3.75-4.43,2.57-9.47,3.68-14.57,3.2l-9-.85Z"/>
          <g class="cls-1">
            <g>
              <path class="cls-3" d="m245.54,36.32l.17-1.17c1.58.23,3.19.98,4.77,2.23,1.24.98,2.47,2.26,3.65,3.82,2.01,2.64,3.19,5.12,3.24,5.22l-1.07.51c-.05-.11-4.68-9.73-10.76-10.62Zm10.76,10.62s0,0,0,0l.53-.25-.53.25Z"/>
              <path class="cls-3" d="m243.62,33.06l-.68-.96c1.56-1.11,3.39-1.47,5.46-1.1,1.6.29,3.33,1.04,5.16,2.21,3.06,1.97,5.31,4.45,5.4,4.55l-.88.79.44-.4-.44.4s-2.25-2.48-5.18-4.36c-3.79-2.43-6.91-2.81-9.27-1.13Z"/>
              <path class="cls-3" d="m240.47,29.15c1.72-2.71,4.63-4.2,8.41-4.31,2.8-.08,5.07.61,5.16.64l-.35,1.13.18-.56-.17.56s-2.2-.67-4.81-.59c-3.4.11-5.9,1.37-7.42,3.76l-1-.63Z"/>
              <path class="cls-3" d="m236.45,27.35c.68-3,2.71-5.29,5.86-6.64,2.34-1,4.45-1.13,4.54-1.14l.07,1.18s-2.02.13-4.17,1.06c-2.81,1.21-4.54,3.17-5.14,5.81l-1.15-.26Z"/>
              <path class="cls-3" d="m231.66,29.77c-.05-2.34.35-4.53,1.19-6.51.68-1.59,1.63-3.05,2.85-4.33,2.07-2.19,4.15-3.11,4.24-3.15l.47,1.08-.24-.54.24.54s-1.98.89-3.88,2.91c-2.53,2.7-3.77,6.05-3.69,9.97l-1.18.03Z"/>
              <path class="cls-3" d="m228.77,33.59c-1.43-2.05-2.18-4.28-2.21-6.62-.03-1.86.4-3.79,1.26-5.73,1.45-3.27,3.63-5.43,3.72-5.52l.83.84s0,0,0,0h0s-2.13,2.13-3.48,5.19c-1.78,4.04-1.5,7.79.85,11.16l-.97.68Z"/>
              <path class="cls-3" d="m223.61,36.75c-.9-1.22-1.58-2.58-2.02-4.08-.54-1.84-.71-3.88-.52-6.05.32-3.68,1.56-6.47,1.62-6.59l1.08.49-.54-.24.54.24s-1.22,2.75-1.52,6.24c-.39,4.6.9,8.3,3.85,10.99l-.8.87c-.63-.58-1.2-1.2-1.69-1.87Z"/>
              <path class="cls-3" d="m218.02,39.5c-1.66-2.24-2-4.71-1.92-6.66.14-3.05,1.32-5.44,1.37-5.54l1.06.53s-1.13,2.29-1.25,5.1c-.15,3.68,1.41,6.53,4.65,8.47l-.61,1.01c-1.45-.87-2.53-1.87-3.31-2.92Z"/>
              <path class="cls-3" d="m204.28,44.06c-.16-2.65.7-4.67,1.46-5.89.82-1.33,1.69-2.04,1.73-2.07l.74.92-.37-.46.37.46s-.77.64-1.49,1.81c-.95,1.56-1.38,3.3-1.26,5.16l-1.18.07Z"/>
              <path class="cls-3" d="m198.86,44.25c-.53-2.89.51-4.77,1.48-5.85,1.05-1.16,2.22-1.63,2.27-1.65l.43,1.1s-1,.41-1.86,1.38c-1.13,1.27-1.52,2.88-1.17,4.8l-1.16.21Z"/>
              <path class="cls-3" d="m192.33,44c1.27-6.51,5.08-6.98,5.24-7l.12,1.17h0s-.78.1-1.67.88c-1.21,1.05-2.08,2.84-2.54,5.17l-1.16-.23Z"/>
              <path class="cls-3" d="m211.63,42.19c-1.13-1.52-1.42-3.45-.84-5.63.47-1.75,1.33-3.05,1.37-3.1l.98.66-.49-.33.49.33s-.8,1.2-1.21,2.77c-.53,2.01-.2,3.68.96,4.96l-.87.79c-.13-.15-.26-.3-.38-.46Z"/>
            </g>
          </g>
          <g class="cls-5">
            <path class="cls-3" d="m250.42,45s4.62-13.99-7.32-19.51c0,0-5.43-4.22-13.43-.93-2.47,1.02-4.67,2.6-6.51,4.55l-2.4,2.55c-.9.95-1.84,1.86-2.83,2.71l-.81.7c-1.67,1.44-3.59,2.58-5.65,3.37h0c-4.12,1.57-8.52,2.26-12.93,2.04l-10.05-.51-.89,2.92,16.42.68,5.4-.96,9.21-4.73,5.63-5.26,5.54-4.95,5.47-1.43,5.46,1.24,3.86,2.57,2.2,2.61,1.58,4.14-.32,3.68-1.04,3.42,3.43,1.07Z"/>
          </g>
        </g>
        <g>
          <path class="cls-3" d="m260.85,75.4l3.78-13.35c.86-3.03,0-6.28-2.23-8.49-4.48-4.43-13.31-10.67-26.62-9.21-3.4.37-6.26,2.76-7.27,6.03l-4.32,13.96,36.66,11.07Z"/>
          <path class="cls-3" d="m221.66,65.68l4.92-15.9c1.26-4.06,4.78-6.98,8.98-7.44,12.61-1.38,21.45,3.75,26.65,8.29.55.48,1.09.99,1.61,1.5,2.76,2.72,3.81,6.74,2.75,10.47l-4.34,15.33-40.58-12.25Zm37.89-12.01c-4.59-4.01-12.39-8.53-23.55-7.31-2.6.28-4.78,2.1-5.56,4.62l-3.72,12.01,32.74,9.89,3.22-11.37c.66-2.32,0-4.81-1.71-6.5-.46-.45-.94-.9-1.43-1.33Z"/>
        </g>
      </g>
      <path class="cls-3" d="m224.47,62.36c-5.43,0-10.71.69-15.74,1.98v16.69c4.93-1.74,10.22-2.7,15.74-2.7,26.11,0,47.35,21.24,47.35,47.35s-21.24,47.35-47.35,47.35-47.35-21.24-47.35-47.35c0-20.43,13-37.87,31.16-44.5l-3.12-15.8c-25.5,8.18-44.02,32.12-44.02,60.3,0,34.91,28.41,63.32,63.32,63.32s63.32-28.41,63.32-63.32-28.4-63.32-63.32-63.32Z"/>
      <path class="cls-3" d="m202.92,40.09l2.09-3.1-2.95-2.42L229.52,0l-32.9,24.64,1.08-15.36-8.91,14.24-7.13-11.85-2,15.4-24.34-7.86,17.07,14.86-5.29,1.33,6.07,4.88-22.52,15.67,24.08-4.35-3.26,7.64,6.48-3.25-7.2,26.13,15.81-24.41,5.8,11.66,1.17-10.24,14.74,22.04-6.08-30.82,22.57,2.27-21.85-12.54Z"/>
      <polygon class="cls-4" points="191.87 52.29 190.89 60.95 186.85 52.83 177.28 67.59 181.75 51.38 176.31 54.11 178.74 48.43 161.19 51.6 177.22 40.44 172.42 36.58 177.49 35.3 165.86 25.17 181.69 30.29 183.18 18.9 188.75 28.17 194.6 18.82 193.83 29.77 215.91 13.23 198.67 34.93 201.76 37.46 199.45 40.9 213.7 49.08 199.19 47.62 203.55 69.74 191.87 52.29"/>
    </g>
  </g>
</svg>